<mxfile host="app.diagrams.net" modified="2020-03-23T05:04:01.372Z" agent="Mozilla/5.0 (X11; Linux x86_64) AppleWebKit/537.36 (KHTML, like Gecko) Chrome/74.0.3729.169 Safari/537.36" etag="PtneMq0Rnd8zO6oKTWN8" version="12.8.6" type="github">
  <diagram id="Cd2ap1aZy9EtDIX2dzuT" name="Page-1">
    <mxGraphModel dx="1199" dy="533" grid="1" gridSize="10" guides="1" tooltips="1" connect="1" arrows="1" fold="1" page="1" pageScale="1" pageWidth="850" pageHeight="1100" math="0" shadow="0">
      <root>
        <mxCell id="0" />
        <mxCell id="1" parent="0" />
        <mxCell id="c7Kt8F2a3eJlYpQoYPuu-3" value="" style="rounded=0;whiteSpace=wrap;html=1;" vertex="1" parent="1">
          <mxGeometry x="80" y="50" width="640" height="540" as="geometry" />
        </mxCell>
        <mxCell id="c7Kt8F2a3eJlYpQoYPuu-4" value="" style="verticalLabelPosition=bottom;shadow=0;dashed=0;align=center;html=1;verticalAlign=top;strokeWidth=1;shape=mxgraph.mockup.graphics.simpleIcon;strokeColor=#000000;rounded=0;labelBackgroundColor=none;fontFamily=Verdana;fontSize=14;fontColor=#000000;comic=1;" vertex="1" parent="1">
          <mxGeometry x="100" y="60" width="64.61" height="60" as="geometry" />
        </mxCell>
        <mxCell id="c7Kt8F2a3eJlYpQoYPuu-5" value="NAMA OUTLET" style="text;html=1;strokeColor=none;fillColor=none;align=left;verticalAlign=middle;whiteSpace=wrap;rounded=0;" vertex="1" parent="1">
          <mxGeometry x="180" y="60" width="500" height="20" as="geometry" />
        </mxCell>
        <mxCell id="c7Kt8F2a3eJlYpQoYPuu-6" value="INFORMASI OUTLET (ALAMAT)" style="text;html=1;strokeColor=none;fillColor=none;align=left;verticalAlign=middle;whiteSpace=wrap;rounded=0;" vertex="1" parent="1">
          <mxGeometry x="180" y="90" width="500" height="20" as="geometry" />
        </mxCell>
        <mxCell id="c7Kt8F2a3eJlYpQoYPuu-7" value="" style="endArrow=none;html=1;exitX=-0.002;exitY=0.141;exitDx=0;exitDy=0;exitPerimeter=0;entryX=1.003;entryY=0.139;entryDx=0;entryDy=0;entryPerimeter=0;" edge="1" parent="1" source="c7Kt8F2a3eJlYpQoYPuu-3" target="c7Kt8F2a3eJlYpQoYPuu-3">
          <mxGeometry width="50" height="50" relative="1" as="geometry">
            <mxPoint x="160" y="220" as="sourcePoint" />
            <mxPoint x="210" y="170" as="targetPoint" />
          </mxGeometry>
        </mxCell>
        <mxCell id="c7Kt8F2a3eJlYpQoYPuu-8" value="Tanggal" style="text;html=1;strokeColor=none;fillColor=none;align=left;verticalAlign=middle;whiteSpace=wrap;rounded=0;" vertex="1" parent="1">
          <mxGeometry x="425" y="160" width="40" height="20" as="geometry" />
        </mxCell>
        <mxCell id="c7Kt8F2a3eJlYpQoYPuu-9" value="" style="group" vertex="1" connectable="0" parent="1">
          <mxGeometry x="492" y="160" width="218" height="20" as="geometry" />
        </mxCell>
        <mxCell id="c7Kt8F2a3eJlYpQoYPuu-10" value="yyyy-mm-dd" style="text;html=1;strokeColor=none;fillColor=none;align=left;verticalAlign=middle;whiteSpace=wrap;rounded=0;" vertex="1" parent="c7Kt8F2a3eJlYpQoYPuu-9">
          <mxGeometry x="118" width="100" height="20" as="geometry" />
        </mxCell>
        <mxCell id="c7Kt8F2a3eJlYpQoYPuu-11" value="yyyy-mm-dd" style="text;html=1;strokeColor=none;fillColor=none;align=left;verticalAlign=middle;whiteSpace=wrap;rounded=0;" vertex="1" parent="c7Kt8F2a3eJlYpQoYPuu-9">
          <mxGeometry width="100" height="20" as="geometry" />
        </mxCell>
        <mxCell id="c7Kt8F2a3eJlYpQoYPuu-12" value="/" style="text;html=1;strokeColor=none;fillColor=none;align=center;verticalAlign=middle;whiteSpace=wrap;rounded=0;" vertex="1" parent="c7Kt8F2a3eJlYpQoYPuu-9">
          <mxGeometry x="100" width="15" height="20" as="geometry" />
        </mxCell>
        <mxCell id="c7Kt8F2a3eJlYpQoYPuu-13" value="Tanggal closing" style="text;html=1;strokeColor=none;fillColor=none;align=left;verticalAlign=middle;whiteSpace=wrap;rounded=0;" vertex="1" parent="1">
          <mxGeometry x="100" y="190" width="110" height="20" as="geometry" />
        </mxCell>
        <mxCell id="c7Kt8F2a3eJlYpQoYPuu-14" value="Omset kotor" style="text;html=1;strokeColor=none;fillColor=none;align=left;verticalAlign=middle;whiteSpace=wrap;rounded=0;" vertex="1" parent="1">
          <mxGeometry x="425" y="190" width="80" height="20" as="geometry" />
        </mxCell>
        <mxCell id="c7Kt8F2a3eJlYpQoYPuu-19" value="Total omset kotor" style="text;html=1;strokeColor=none;fillColor=none;align=left;verticalAlign=middle;whiteSpace=wrap;rounded=0;" vertex="1" parent="1">
          <mxGeometry x="100" y="160" width="130" height="20" as="geometry" />
        </mxCell>
      </root>
    </mxGraphModel>
  </diagram>
</mxfile>
